<svg xmlns="http://www.w3.org/2000/svg" xmlns:xlink="http://www.w3.org/1999/xlink" version="1.1" x="0px" y="0px"
	viewBox="0 0 52 52" style="enable-background:new 0 0 52 52;" xml:space="preserve">
	<style type="text/css">
		.st0 {
			fill: none;
		}
	</style>
	<path style="
    fill: #f4f9f9;
"
		d="M43.980011,4.1486206c-2.210022,0-4,1.789917-4,4c0,0.739502,0.2158203,1.425415,0.5683594,2.0213623l-2.569397,2.5959473  c-3.1876831-2.8607178-7.3857422-4.6173096-11.9989624-4.6173096c-4.5988159,0-8.7886353,1.7491455-11.9748535,4.5991211  l-2.5527344-2.5792236c0.3519897-0.5955811,0.5675659-1.2810059,0.5675659-2.0198975c0-2.210083-1.789978-4-4-4  c-2.1999512,0-4,1.789917-4,4c0,2.1999512,1.8000488,4,4,4c0.7397461,0,1.423584-0.2154541,2.0178833-0.5662842l2.5524902,2.5788574  c-2.855957,3.1862793-4.6103516,7.3797607-4.6103516,11.9874268c0,7.0405273,4.0797119,13.137207,9.9889526,16.0932617  l-4.1954346,4.1954346l1.4140625,1.4140625l4.7644653-4.7644043c1.8882446,0.6748047,3.9116821,1.0616455,6.0279541,1.0616455  c1.9802856,0,3.8808594-0.3336182,5.6640015-0.9267578l4.6295166,4.6295166l1.4140625-1.4140625l-4.0316162-4.0316162  c6.0927734-2.8890381,10.3240356-9.0827637,10.3240356-16.2570801c0-4.5977783-1.7446899-8.7832031-4.5883789-11.967041  l2.5718384-2.5985107c0.5939331,0.3503418,1.2773438,0.5655518,2.0165405,0.5655518c2.210022,0,4-1.8000488,4-4  C47.980011,5.9385376,46.190033,4.1486206,43.980011,4.1486206z M27.9805603,28.1443481h-14v-2h12v-11h2V28.1443481z" />
</svg>